<svg width="139" height="50" viewBox="0 0 139 50" fill="none" xmlns="http://www.w3.org/2000/svg">
<path d="M25 50C38.8071 50 50 38.8071 50 25C50 11.1929 38.8071 0 25 0C11.1929 0 0 11.1929 0 25C0 38.8071 11.1929 50 25 50Z" fill="white"/>
<path d="M6.23914 30V28.7694L7.29383 28.6231L12.2645 15.7812H13.9149L18.7977 28.6231L19.8427 28.7694V30H15.7606V28.7694L16.8349 28.5839L15.8974 25.9668H10.204L9.23719 28.5839L10.3114 28.7694V30H6.23914ZM10.7997 24.3555H15.3114L13.2216 18.5742L13.1044 18.2519H13.0458L12.9286 18.5742L10.7997 24.3555ZM20.9657 34.0625V32.8222L22.4599 32.5489V20.9473L20.8681 20.6738V19.4336H24.1102L24.286 20.7227C24.6376 20.2409 25.064 19.8731 25.5653 19.6191C26.0731 19.3652 26.6591 19.2383 27.3231 19.2383C28.1956 19.2383 28.9411 19.4759 29.5594 19.9512C30.1781 20.4199 30.65 21.0807 30.9756 21.9336C31.3011 22.7799 31.4639 23.7728 31.4639 24.9121V25.1172C31.4639 26.1328 31.2978 27.0215 30.9658 27.7833C30.6403 28.545 30.1714 29.1406 29.5594 29.5703C28.9475 29.9936 28.2117 30.205 27.3524 30.205C26.7014 30.205 26.1285 30.0978 25.6337 29.8828C25.1454 29.6614 24.7287 29.3358 24.3837 28.9061V32.5489L26.0634 32.8222V34.0625H20.9657ZM26.7567 28.7011C27.6682 28.7011 28.3583 28.3692 28.8269 27.7051C29.2958 27.041 29.5303 26.1784 29.5303 25.1172V24.9121C29.5303 24.1048 29.4261 23.3952 29.2178 22.7832C29.0094 22.1647 28.6969 21.6797 28.2803 21.3281C27.87 20.9766 27.3557 20.8008 26.7372 20.8008C26.1903 20.8008 25.7216 20.9245 25.3309 21.1719C24.9403 21.4193 24.6246 21.7578 24.3837 22.1875V27.334C24.6246 27.7702 24.9371 28.1086 25.3212 28.3497C25.7118 28.5839 26.1903 28.7011 26.7567 28.7011ZM32.665 34.0625V32.8222L34.1592 32.5489V20.9473L32.5672 20.6738V19.4336H35.8094L35.9853 20.7227C36.3367 20.2409 36.7633 19.8731 37.2644 19.6191C37.7722 19.3652 38.3583 19.2383 39.0222 19.2383C39.8947 19.2383 40.6403 19.4759 41.2586 19.9512C41.8772 20.4199 42.3492 21.0807 42.6747 21.9336C43.0003 22.7799 43.163 23.7728 43.163 24.9121V25.1172C43.163 26.1328 42.9969 27.0215 42.665 27.7833C42.3394 28.545 41.8706 29.1406 41.2586 29.5703C40.6467 29.9936 39.9111 30.205 39.0517 30.205C38.4006 30.205 37.8278 30.0978 37.3328 29.8828C36.8447 29.6614 36.428 29.3358 36.0828 28.9061V32.5489L37.7625 32.8222V34.0625H32.665ZM38.4558 28.7011C39.3675 28.7011 40.0575 28.3692 40.5264 27.7051C40.995 27.041 41.2294 26.1784 41.2294 25.1172V24.9121C41.2294 24.1048 41.1253 23.3952 40.9169 22.7832C40.7086 22.1647 40.3961 21.6797 39.9794 21.3281C39.5692 20.9766 39.055 20.8008 38.4364 20.8008C37.8894 20.8008 37.4208 20.9245 37.0303 21.1719C36.6394 21.4193 36.3239 21.7578 36.0828 22.1875V27.334C36.3239 27.7702 36.6364 28.1086 37.0203 28.3497C37.4111 28.5839 37.8894 28.7011 38.4558 28.7011Z" fill="#121212"/>
<path d="M55.3614 34.2675C54.8537 34.2675 54.3034 34.1958 53.7109 34.0528C53.1187 33.9161 52.5978 33.7272 52.1484 33.4864L52.6464 31.9922C53.0045 32.1811 53.4278 32.3372 53.9162 32.4608C54.4042 32.5847 54.8795 32.6464 55.3417 32.6464C56.2012 32.6464 56.8295 32.4056 57.2267 31.9239C57.6303 31.442 57.832 30.7553 57.832 29.8633V28.8575C57.487 29.3 57.0737 29.6356 56.5917 29.8633C56.11 30.0911 55.5567 30.205 54.9317 30.205C54.0723 30.205 53.3301 29.9936 52.7051 29.5703C52.0801 29.1406 51.5984 28.545 51.2598 27.7833C50.9278 27.015 50.7617 26.1263 50.7617 25.1172V24.9121C50.7617 23.7793 50.9278 22.7865 51.2598 21.9336C51.5984 21.0807 52.0801 20.4199 52.7051 19.9512C53.3301 19.4759 54.0789 19.2383 54.9512 19.2383C55.6153 19.2383 56.1978 19.3685 56.6992 19.6289C57.2006 19.8893 57.6206 20.2669 57.9589 20.7617L58.1348 19.4336H59.7559V29.8633C59.7559 30.7747 59.5834 31.5592 59.2384 32.2167C58.8998 32.8745 58.4017 33.3789 57.7442 33.7306C57.0931 34.0886 56.2989 34.2675 55.3614 34.2675ZM55.4103 28.6425C55.9895 28.6425 56.4748 28.5125 56.8653 28.252C57.2559 27.985 57.5781 27.6107 57.832 27.1289V22.2656C57.5848 21.8164 57.2625 21.4616 56.8653 21.2012C56.4681 20.9343 55.9895 20.8008 55.4298 20.8008C54.8178 20.8008 54.3067 20.9766 53.8964 21.3281C53.4928 21.6797 53.19 22.1647 52.9884 22.7832C52.7864 23.3952 52.6856 24.1048 52.6856 24.9121V25.1172C52.6856 26.1784 52.9103 27.0313 53.3595 27.6758C53.8087 28.3203 54.4923 28.6425 55.4103 28.6425ZM59.4628 21.0059L58.7109 19.4336H61.0645V20.6641L59.4628 21.0059ZM66.7481 30.205C65.7714 30.205 64.9284 29.9772 64.2189 29.5214C63.5156 29.0592 62.972 28.4245 62.5878 27.6172C62.2039 26.8034 62.0117 25.8757 62.0117 24.834V24.6192C62.0117 23.5775 62.2039 22.653 62.5878 21.8457C62.972 21.0319 63.5156 20.3939 64.2189 19.9317C64.9284 19.4694 65.7651 19.2383 66.7287 19.2383C67.7051 19.2383 68.545 19.4694 69.2481 19.9317C69.9578 20.3939 70.5045 21.0287 70.8887 21.836C71.2728 22.6432 71.4648 23.571 71.4648 24.6192V24.834C71.4648 25.8822 71.2728 26.8132 70.8887 27.627C70.5045 28.4342 69.9609 29.0658 69.2578 29.5214C68.5548 29.9772 67.7181 30.205 66.7481 30.205ZM66.7481 28.7011C67.36 28.7011 67.8712 28.5353 68.2812 28.2031C68.6978 27.8645 69.0106 27.4056 69.2189 26.8262C69.4337 26.2402 69.5412 25.5762 69.5412 24.834V24.6192C69.5412 23.877 69.4337 23.2162 69.2189 22.6367C69.0106 22.0508 68.6978 21.5918 68.2812 21.2598C67.8645 20.9212 67.347 20.752 66.7287 20.752C66.1167 20.752 65.6023 20.9212 65.1856 21.2598C64.7689 21.5918 64.4564 22.0508 64.2481 22.6367C64.0398 23.2162 63.9356 23.877 63.9356 24.6192V24.834C63.9356 25.5762 64.0398 26.2402 64.2481 26.8262C64.4564 27.4056 64.7689 27.8645 65.1856 28.2031C65.6087 28.5353 66.1295 28.7011 66.7481 28.7011ZM73.6426 30V28.0272H75.5664V30H73.6426ZM82.5489 30.205C81.5723 30.205 80.7292 29.9772 80.0195 29.5214C79.3164 29.0592 78.7728 28.4245 78.3887 27.6172C78.0045 26.8034 77.8125 25.8757 77.8125 24.834V24.6192C77.8125 23.5775 78.0045 22.653 78.3887 21.8457C78.7728 21.0319 79.3164 20.3939 80.0195 19.9317C80.7292 19.4694 81.5659 19.2383 82.5292 19.2383C83.5059 19.2383 84.3459 19.4694 85.0489 19.9317C85.7584 20.3939 86.3053 21.0287 86.6895 21.836C87.0737 22.6432 87.2656 23.571 87.2656 24.6192V24.834C87.2656 25.8822 87.0737 26.8132 86.6895 27.627C86.3053 28.4342 85.7617 29.0658 85.0587 29.5214C84.3556 29.9772 83.5189 30.205 82.5489 30.205ZM82.5489 28.7011C83.1609 28.7011 83.672 28.5353 84.082 28.2031C84.4987 27.8645 84.8112 27.4056 85.0195 26.8262C85.2345 26.2402 85.3417 25.5762 85.3417 24.834V24.6192C85.3417 23.877 85.2345 23.2162 85.0195 22.6367C84.8112 22.0508 84.4987 21.5918 84.082 21.2598C83.6653 20.9212 83.1478 20.752 82.5292 20.752C81.9173 20.752 81.4031 20.9212 80.9864 21.2598C80.5698 21.5918 80.2573 22.0508 80.0489 22.6367C79.8406 23.2162 79.7364 23.877 79.7364 24.6192V24.834C79.7364 25.5762 79.8406 26.2402 80.0489 26.8262C80.2573 27.4056 80.5698 27.8645 80.9864 28.2031C81.4095 28.5353 81.9303 28.7011 82.5489 28.7011ZM88.75 30V28.7695L90.3417 28.4961V20.9473L88.75 20.6738V19.4336H92.0606L92.1973 21.0059C92.5489 20.446 92.9884 20.013 93.5156 19.707C94.0495 19.3945 94.6551 19.2383 95.332 19.2383C96.4714 19.2383 97.3537 19.5736 97.9787 20.2442C98.6037 20.9082 98.9162 21.9369 98.9162 23.3301V28.4961L100.508 28.7695V30H95.4003V28.7695L96.9923 28.4961V23.3692C96.9923 22.4382 96.8067 21.7773 96.4356 21.3867C96.0709 20.9961 95.5112 20.8008 94.7559 20.8008C94.2025 20.8008 93.7109 20.9343 93.2812 21.2012C92.8581 21.4681 92.5195 21.8327 92.2656 22.2949V28.4961L93.8575 28.7695V30H88.75ZM101.777 30V28.7695L103.369 28.4961V16.2793L101.777 16.0059V14.7656H105.293V28.4961L106.885 28.7695V30H101.777ZM108.193 30V28.7695L109.785 28.4961V20.9473L108.193 20.6738V19.4336H111.709V28.4961L113.301 28.7695V30H108.193ZM109.688 16.8262V14.7656H111.709V16.8262H109.688ZM114.629 30V28.7695L116.221 28.4961V20.9473L114.629 20.6738V19.4336H117.939L118.076 21.0059C118.428 20.446 118.867 20.013 119.394 19.707C119.928 19.3945 120.534 19.2383 121.211 19.2383C122.35 19.2383 123.233 19.5736 123.858 20.2442C124.483 20.9082 124.795 21.9369 124.795 23.3301V28.4961L126.387 28.7695V30H121.279V28.7695L122.871 28.4961V23.3692C122.871 22.4382 122.686 21.7773 122.314 21.3867C121.95 20.9961 121.39 20.8008 120.635 20.8008C120.081 20.8008 119.59 20.9343 119.16 21.2012C118.737 21.4681 118.398 21.8327 118.144 22.2949V28.4961L119.736 28.7695V30H114.629ZM132.412 30.205C131.436 30.205 130.586 29.9836 129.863 29.5411C129.141 29.0917 128.581 28.47 128.184 27.6758C127.793 26.8815 127.598 25.9636 127.598 24.9219V24.4922C127.598 23.4896 127.803 22.5944 128.213 21.8067C128.629 21.0124 129.18 20.3874 129.863 19.9317C130.553 19.4694 131.305 19.2383 132.119 19.2383C133.07 19.2383 133.864 19.4336 134.502 19.8242C135.146 20.2148 135.631 20.765 135.957 21.4746C136.283 22.1777 136.445 23.0078 136.445 23.9648V25.166H129.59L129.561 25.2148C129.574 25.8919 129.691 26.4942 129.912 27.0215C130.14 27.5423 130.466 27.9525 130.889 28.252C131.312 28.5514 131.82 28.7011 132.412 28.7011C133.063 28.7011 133.633 28.61 134.121 28.4278C134.616 28.2389 135.042 27.9817 135.4 27.6563L136.152 28.9061C135.775 29.2708 135.273 29.58 134.648 29.8339C134.03 30.0814 133.284 30.205 132.412 30.205ZM129.648 23.6621H134.521V23.4082C134.521 22.9004 134.43 22.4479 134.248 22.0508C134.072 21.6472 133.805 21.3314 133.447 21.1035C133.096 20.8692 132.653 20.752 132.119 20.752C131.689 20.752 131.299 20.8789 130.947 21.1328C130.596 21.3802 130.306 21.7188 130.078 22.1485C129.85 22.5781 129.701 23.0664 129.629 23.6133L129.648 23.6621Z" fill="white"/>
</svg>
