<svg width="75" height="28" viewBox="0 0 75 28" fill="none" xmlns="http://www.w3.org/2000/svg">
<g clip-path="url(#clip0_80_41)">
<path d="M13.5542 27.1084C21.04 27.1084 27.1084 21.04 27.1084 13.5542C27.1084 6.06843 21.04 0 13.5542 0C6.06843 0 0 6.06843 0 13.5542C0 21.04 6.06843 27.1084 13.5542 27.1084Z" fill="#121212"/>
<path d="M3.38266 16.2651V15.5979L3.95448 15.5185L6.64944 8.55609H7.54424L10.1915 15.5185L10.7581 15.5979V16.2651H8.54492V15.5979L9.12733 15.4973L8.61905 14.0784H5.53228L5.00811 15.4973L5.59052 15.5979V16.2651H3.38266ZM5.85525 13.2048H8.30137L7.16832 10.0704L7.10478 9.89562H7.07301L7.00948 10.0704L5.85525 13.2048ZM11.367 18.4676V17.7952L12.177 17.647V11.3569L11.314 11.2087V10.5363H13.0718L13.1671 11.2352C13.3577 10.974 13.5889 10.7745 13.8607 10.6369C14.136 10.4992 14.4537 10.4304 14.8137 10.4304C15.2867 10.4304 15.691 10.5592 16.0262 10.8169C16.3616 11.071 16.6175 11.4293 16.794 11.8917C16.9705 12.3506 17.0587 12.8888 17.0587 13.5066V13.6177C17.0587 14.1684 16.9687 14.6502 16.7887 15.0632C16.6122 15.4762 16.358 15.7991 16.0262 16.0321C15.6944 16.2616 15.2955 16.3762 14.8296 16.3762C14.4767 16.3762 14.166 16.3181 13.8978 16.2015C13.633 16.0815 13.4071 15.905 13.2201 15.672V17.647L14.1307 17.7952V18.4676H11.367ZM14.5067 15.5608C15.0008 15.5608 15.375 15.3809 15.6291 15.0208C15.8833 14.6608 16.0104 14.1931 16.0104 13.6177V13.5066C16.0104 13.0689 15.9539 12.6841 15.841 12.3523C15.728 12.017 15.5586 11.754 15.3327 11.5634C15.1102 11.3728 14.8314 11.2775 14.4961 11.2775C14.1996 11.2775 13.9454 11.3446 13.7336 11.4787C13.5219 11.6129 13.3507 11.7964 13.2201 12.0294V14.8196C13.3507 15.0561 13.5201 15.2396 13.7283 15.3703C13.9401 15.4973 14.1996 15.5608 14.5067 15.5608ZM17.7099 18.4676V17.7952L18.52 17.647V11.3569L17.6569 11.2087V10.5363H19.4148L19.5101 11.2352C19.7006 10.974 19.9319 10.7745 20.2036 10.6369C20.4789 10.4992 20.7967 10.4304 21.1566 10.4304C21.6297 10.4304 22.0339 10.5592 22.3691 10.8169C22.7045 11.071 22.9604 11.4293 23.1369 11.8917C23.3134 12.3506 23.4016 12.8888 23.4016 13.5066V13.6177C23.4016 14.1684 23.3116 14.6502 23.1316 15.0632C22.9551 15.4762 22.7009 15.7991 22.3691 16.0321C22.0373 16.2616 21.6385 16.3762 21.1726 16.3762C20.8196 16.3762 20.509 16.3181 20.2407 16.2015C19.976 16.0815 19.7501 15.905 19.5629 15.672V17.647L20.4736 17.7952V18.4676H17.7099ZM20.8495 15.5608C21.3438 15.5608 21.7179 15.3809 21.9721 15.0208C22.2262 14.6608 22.3533 14.1931 22.3533 13.6177V13.5066C22.3533 13.0689 22.2968 12.6841 22.1839 12.3523C22.0709 12.017 21.9015 11.754 21.6756 11.5634C21.4532 11.3728 21.1744 11.2775 20.839 11.2775C20.5425 11.2775 20.2884 11.3446 20.0767 11.4787C19.8648 11.6129 19.6937 11.7964 19.5629 12.0294V14.8196C19.6937 15.0561 19.8631 15.2396 20.0712 15.3703C20.2831 15.4973 20.5425 15.5608 20.8495 15.5608Z" fill="white"/>
<path d="M30.0152 18.5787C29.7399 18.5787 29.4416 18.5399 29.1203 18.4623C28.7993 18.3882 28.5169 18.2858 28.2732 18.1553L28.5432 17.3452C28.7374 17.4476 28.9669 17.5322 29.2316 17.5992C29.4962 17.6664 29.7539 17.6998 30.0045 17.6998C30.4705 17.6998 30.8112 17.5693 31.0265 17.3081C31.2453 17.0468 31.3547 16.6745 31.3547 16.1909V15.6456C31.1676 15.8855 30.9435 16.0675 30.6822 16.1909C30.4211 16.3144 30.1211 16.3762 29.7822 16.3762C29.3163 16.3762 28.9139 16.2616 28.575 16.0321C28.2362 15.7991 27.975 15.4762 27.7914 15.0632C27.6115 14.6467 27.5214 14.1648 27.5214 13.6177V13.5065C27.5214 12.8924 27.6115 12.3541 27.7914 11.8917C27.975 11.4293 28.2362 11.071 28.575 10.8169C28.9139 10.5592 29.3199 10.4304 29.7928 10.4304C30.1529 10.4304 30.4687 10.501 30.7405 10.6422C31.0124 10.7834 31.2401 10.9881 31.4235 11.2563L31.5188 10.5363H32.3977V16.1909C32.3977 16.6851 32.3042 17.1104 32.1172 17.4668C31.9336 17.8235 31.6636 18.097 31.3071 18.2876C30.9541 18.4818 30.5235 18.5787 30.0152 18.5787ZM30.0417 15.529C30.3557 15.529 30.6188 15.4586 30.8306 15.3173C31.0423 15.1726 31.217 14.9696 31.3547 14.7084V12.0717C31.2206 11.8282 31.0459 11.6358 30.8306 11.4946C30.6152 11.3499 30.3557 11.2775 30.0523 11.2775C29.7205 11.2775 29.4434 11.3728 29.2209 11.5634C29.0021 11.754 28.838 12.017 28.7286 12.3523C28.6191 12.6841 28.5645 13.0689 28.5645 13.5065V13.6177C28.5645 14.1931 28.6863 14.6555 28.9298 15.0049C29.1733 15.3543 29.544 15.529 30.0417 15.529ZM32.2389 11.3887L31.8312 10.5363H33.1072V11.2034L32.2389 11.3887ZM36.1887 16.3762C35.6592 16.3762 35.2021 16.2527 34.8175 16.0056C34.4362 15.755 34.1414 15.4108 33.9331 14.9732C33.725 14.5319 33.6208 14.0289 33.6208 13.4642V13.3477C33.6208 12.7829 33.725 12.2817 33.9331 11.844C34.1414 11.4028 34.4362 11.0569 34.8175 10.8063C35.2021 10.5557 35.6557 10.4304 36.1782 10.4304C36.7075 10.4304 37.163 10.5557 37.5441 10.8063C37.9289 11.0569 38.2253 11.401 38.4336 11.8387C38.6419 12.2764 38.7459 12.7794 38.7459 13.3477V13.4642C38.7459 14.0325 38.6419 14.5372 38.4336 14.9784C38.2253 15.4161 37.9306 15.7586 37.5494 16.0056C37.1682 16.2527 36.7146 16.3762 36.1887 16.3762ZM36.1887 15.5608C36.5205 15.5608 36.7976 15.4709 37.0199 15.2908C37.2458 15.1072 37.4154 14.8584 37.5283 14.5443C37.6447 14.2266 37.703 13.8666 37.703 13.4642V13.3477C37.703 12.9453 37.6447 12.587 37.5283 12.2729C37.4154 11.9552 37.2458 11.7064 37.0199 11.5264C36.794 11.3428 36.5134 11.251 36.1782 11.251C35.8464 11.251 35.5675 11.3428 35.3416 11.5264C35.1157 11.7064 34.9462 11.9552 34.8333 12.2729C34.7203 12.587 34.6639 12.9453 34.6639 13.3477V13.4642C34.6639 13.8666 34.7203 14.2266 34.8333 14.5443C34.9462 14.8584 35.1157 15.1072 35.3416 15.2908C35.5709 15.4709 35.8533 15.5608 36.1887 15.5608ZM39.9267 16.265V15.1955H40.9697V16.265H39.9267ZM44.7554 16.3762C44.2259 16.3762 43.7688 16.2527 43.384 16.0056C43.0029 15.755 42.7081 15.4108 42.4999 14.9732C42.2916 14.5319 42.1875 14.0289 42.1875 13.4642V13.3477C42.1875 12.7829 42.2916 12.2817 42.4999 11.844C42.7081 11.4028 43.0029 11.0569 43.384 10.8063C43.7688 10.5557 44.2224 10.4304 44.7447 10.4304C45.2743 10.4304 45.7297 10.5557 46.1108 10.8063C46.4955 11.0569 46.792 11.401 47.0003 11.8387C47.2086 12.2764 47.3127 12.7794 47.3127 13.3477V13.4642C47.3127 14.0325 47.2086 14.5372 47.0003 14.9784C46.792 15.4161 46.4973 15.7586 46.1161 16.0056C45.7349 16.2527 45.2813 16.3762 44.7554 16.3762ZM44.7554 15.5608C45.0872 15.5608 45.3643 15.4709 45.5866 15.2908C45.8125 15.1072 45.9819 14.8584 46.0949 14.5443C46.2115 14.2266 46.2696 13.8666 46.2696 13.4642V13.3477C46.2696 12.9453 46.2115 12.587 46.0949 12.2729C45.9819 11.9552 45.8125 11.7064 45.5866 11.5264C45.3607 11.3428 45.0801 11.251 44.7447 11.251C44.413 11.251 44.1342 11.3428 43.9083 11.5264C43.6824 11.7064 43.513 11.9552 43.4 12.2729C43.2871 12.587 43.2306 12.9453 43.2306 13.3477V13.4642C43.2306 13.8666 43.2871 14.2266 43.4 14.5443C43.513 14.8584 43.6824 15.1072 43.9083 15.2908C44.1377 15.4709 44.42 15.5608 44.7554 15.5608ZM48.1175 16.265V15.5979L48.9804 15.4497V11.3569L48.1175 11.2087V10.5363H49.9124L49.9865 11.3887C50.1771 11.0851 50.4154 10.8504 50.7012 10.6845C50.9907 10.5151 51.319 10.4304 51.686 10.4304C52.3038 10.4304 52.7821 10.6121 53.1209 10.9757C53.4598 11.3357 53.6292 11.8935 53.6292 12.6488V15.4497L54.4922 15.5979V16.265H51.7231V15.5979L52.5862 15.4497V12.67C52.5862 12.1652 52.4855 11.807 52.2843 11.5952C52.0866 11.3834 51.7831 11.2775 51.3737 11.2775C51.0737 11.2775 50.8071 11.3499 50.5741 11.4946C50.3447 11.6393 50.1612 11.837 50.0235 12.0876V15.4497L50.8866 15.5979V16.265H48.1175ZM55.1804 16.265V15.5979L56.0435 15.4497V8.82611L55.1804 8.67786V8.00543H57.0866V15.4497L57.9496 15.5979V16.265H55.1804ZM58.659 16.265V15.5979L59.5221 15.4497V11.3569L58.659 11.2087V10.5363H60.5651V15.4497L61.4282 15.5979V16.265H58.659ZM59.4691 9.1226V8.00543H60.5651V9.1226H59.4691ZM62.1482 16.265V15.5979L63.0113 15.4497V11.3569L62.1482 11.2087V10.5363H63.9431L64.0172 11.3887C64.2078 11.0851 64.4461 10.8504 64.7319 10.6845C65.0214 10.5151 65.3497 10.4304 65.7167 10.4304C66.3345 10.4304 66.8128 10.6121 67.1517 10.9757C67.4905 11.3357 67.6599 11.8935 67.6599 12.6488V15.4497L68.5229 15.5979V16.265H65.7538V15.5979L66.6169 15.4497V12.67C66.6169 12.1652 66.5163 11.807 66.3151 11.5952C66.1175 11.3834 65.8139 11.2775 65.4044 11.2775C65.1044 11.2775 64.8378 11.3499 64.605 11.4946C64.3755 11.6393 64.1919 11.837 64.0542 12.0876V15.4497L64.9173 15.5979V16.265H62.1482ZM71.7898 16.3762C71.2602 16.3762 70.7996 16.2562 70.4078 16.0162C70.016 15.7726 69.7125 15.4355 69.4971 15.0049C69.2854 14.5743 69.1795 14.0766 69.1795 13.5118V13.2789C69.1795 12.7353 69.2907 12.25 69.513 11.8229C69.7389 11.3922 70.0372 11.0534 70.4078 10.8063C70.7819 10.5557 71.1896 10.4304 71.6309 10.4304C72.1462 10.4304 72.5768 10.5363 72.9227 10.7481C73.2721 10.9598 73.5351 11.2581 73.7116 11.6428C73.8881 12.024 73.9764 12.4741 73.9764 12.993V13.6442H70.2595L70.2437 13.6707C70.2508 14.0378 70.3143 14.3643 70.4343 14.6502C70.5578 14.9326 70.7343 15.155 70.9637 15.3173C71.1932 15.4796 71.4685 15.5608 71.7898 15.5608C72.1426 15.5608 72.4515 15.5114 72.7163 15.4126C72.9845 15.3102 73.2157 15.1708 73.4098 14.9943L73.8175 15.672C73.6128 15.8697 73.341 16.0373 73.0021 16.175C72.6669 16.3092 72.2627 16.3762 71.7898 16.3762ZM70.2913 12.8288H72.9333V12.6912C72.9333 12.4159 72.8839 12.1705 72.7851 11.9552C72.6898 11.7364 72.545 11.5652 72.3509 11.4417C72.1604 11.3146 71.9203 11.251 71.6309 11.251C71.3979 11.251 71.1862 11.3199 70.9955 11.4575C70.805 11.5917 70.6479 11.7752 70.5243 12.0082C70.4008 12.2411 70.3196 12.5059 70.2807 12.8024L70.2913 12.8288Z" fill="#121212"/>
</g>
<defs>
<clipPath id="clip0_80_41">
<rect width="75" height="27.1084" fill="white"/>
</clipPath>
</defs>
</svg>
