<svg width="41" height="40" viewBox="0 0 41 40" fill="none" xmlns="http://www.w3.org/2000/svg">
<g clip-path="url(#clip0_12_131)">
<path d="M30.4713 0H10.4858C4.967 0 0.493103 4.47715 0.493103 10V30C0.493103 35.5228 4.967 40 10.4858 40H30.4713C35.9902 40 40.4641 35.5228 40.4641 30V10C40.4641 4.47715 35.9902 0 30.4713 0Z" fill="white"/>
<path d="M31.4306 34.45H9.37665V5.54999H24.6156L31.4306 12.37V34.45Z" fill="white"/>
<path d="M20.4786 34.45C24.3082 34.45 27.9809 32.9276 30.6889 30.2177C33.3968 27.5078 34.9181 23.8324 34.9181 20C34.9181 16.1676 33.3968 12.4922 30.6889 9.7823C27.9809 7.07239 24.3082 5.54999 20.4786 5.54999C16.649 5.54999 12.9763 7.07239 10.2683 9.7823C7.56039 12.4922 6.03909 16.1676 6.03909 20C6.03909 23.8324 7.56039 27.5078 10.2683 30.2177C12.9763 32.9276 16.649 34.45 20.4786 34.45Z" fill="white"/>
<path d="M20.4786 34.45C24.3082 34.45 27.9809 32.9276 30.6889 30.2177C33.3968 27.5078 34.9181 23.8324 34.9181 20C34.9181 16.1676 33.3968 12.4922 30.6889 9.7823C27.9809 7.07239 24.3082 5.54999 20.4786 5.54999C16.649 5.54999 12.9763 7.07239 10.2683 9.7823C7.56039 12.4922 6.03909 16.1676 6.03909 20C6.03909 23.8324 7.56039 27.5078 10.2683 30.2177C12.9763 32.9276 16.649 34.45 20.4786 34.45Z" stroke="#3736A2" stroke-width="1.75" stroke-miterlimit="10" stroke-linecap="round" stroke-linejoin="round"/>
<path d="M6.04907 20H34.9081M20.4786 34.45C24.4657 34.45 27.6933 27.98 27.6933 20C27.6933 12.02 24.4757 5.56 20.4786 5.56C16.4915 5.56 13.2638 12.02 13.2638 20C13.2638 27.98 16.4915 34.45 20.4786 34.45Z" stroke="#3736A2" stroke-width="1.75" stroke-miterlimit="10" stroke-linecap="round" stroke-linejoin="round"/>
<path d="M10.7057 9.37C13.4908 11.5586 16.9376 12.733 20.4786 12.7C24.2458 12.7 27.6734 11.44 30.2515 9.37M10.7057 30.63C13.4908 28.4414 16.9376 27.2669 20.4786 27.3C24.2458 27.3 27.6734 28.56 30.2515 30.63" stroke="#3736A2" stroke-width="1.75" stroke-miterlimit="10" stroke-linecap="round" stroke-linejoin="round"/>
<path d="M34.9081 9.13C33.962 9.13 33.0546 9.50612 32.3856 10.1756C31.7165 10.8451 31.3407 11.7532 31.3407 12.7C31.3407 10.73 29.7419 9.13 27.7733 9.13C29.7419 9.13 31.3407 7.53 31.3407 5.56C31.3407 7.53 32.9395 9.13 34.9081 9.13Z" fill="#3736A2" stroke="#3736A2" stroke-width="1.23" stroke-miterlimit="10" stroke-linecap="round" stroke-linejoin="round"/>
</g>
<defs>
<clipPath id="clip0_12_131">
<rect width="39.971" height="40" fill="white" transform="translate(0.493103)"/>
</clipPath>
</defs>
</svg>
