<svg width="41" height="41" viewBox="0 0 41 41" fill="none" xmlns="http://www.w3.org/2000/svg">
<g clip-path="url(#clip0_12_119)">
<path d="M30.4713 0.365387H10.4858C4.967 0.365387 0.493103 4.83776 0.493103 10.3547V30.3333C0.493103 35.8503 4.967 40.3227 10.4858 40.3227H30.4713C35.9902 40.3227 40.4641 35.8503 40.4641 30.3333V10.3547C40.4641 4.83776 35.9902 0.365387 30.4713 0.365387Z" fill="white"/>
<path d="M14.5129 7.02826H26.9739C27.1563 7.02695 27.3372 7.06156 27.5062 7.13013C27.6752 7.19869 27.8291 7.29987 27.959 7.42788C28.0889 7.55589 28.1923 7.70822 28.2633 7.87618C28.3343 8.04415 28.3715 8.22445 28.3729 8.40679V32.4311C28.3742 32.6151 28.3389 32.7976 28.2691 32.9678C28.1992 33.1381 28.0962 33.2928 27.9661 33.4229C27.8359 33.5531 27.6811 33.656 27.5108 33.7259C27.3405 33.7957 27.158 33.8309 26.9739 33.8296H14.5129C14.3297 33.8296 14.1482 33.7934 13.9791 33.723C13.8099 33.6526 13.6563 33.5494 13.5272 33.4194C13.3981 33.2894 13.296 33.1351 13.2268 32.9655C13.1576 32.7959 13.1226 32.6143 13.1239 32.4311V8.40679C13.1252 8.22445 13.1625 8.04415 13.2335 7.87618C13.3045 7.70822 13.4079 7.55589 13.5378 7.42788C13.6677 7.29987 13.8216 7.19869 13.9906 7.13013C14.1596 7.06156 14.3405 7.02695 14.5229 7.02826H14.5129Z" fill="white" stroke="#3736A2" stroke-width="1.75" stroke-miterlimit="10" stroke-linecap="round" stroke-linejoin="round"/>
<path d="M5.48947 20.4239H9.11684M7.56796 15.4093L10.1361 17.9766M7.56796 25.4286L10.1361 22.8713M35.9973 20.4239H32.3699M33.9288 25.4386L31.3507 22.8713M33.9288 15.4093L31.3507 17.9766" stroke="#3736A2" stroke-width="1.75" stroke-miterlimit="10" stroke-linecap="round" stroke-linejoin="round"/>
<path d="M26.5742 11.4236H14.9126V23.0711H26.5742V11.4236Z" fill="#3736A2" stroke="#3736A2" stroke-width="1.23" stroke-miterlimit="10" stroke-linecap="round" stroke-linejoin="round"/>
<path d="M19.6392 16.1285L18.0304 16.7878C17.8363 16.8695 17.6823 17.0245 17.6019 17.219C17.5214 17.4135 17.521 17.6319 17.6007 17.8267C17.7606 18.2263 18.2302 18.4261 18.6399 18.2663L20.2388 17.597C20.4328 17.5153 20.5868 17.3603 20.6672 17.1658C20.7477 16.9713 20.7481 16.7529 20.6684 16.5581C20.629 16.4612 20.5708 16.3731 20.497 16.2989C20.4232 16.2247 20.3354 16.1659 20.2387 16.1259C20.142 16.0859 20.0383 16.0656 19.9337 16.066C19.8291 16.0665 19.7256 16.0877 19.6292 16.1285H19.6392Z" stroke="white" stroke-width="1.23" stroke-miterlimit="10" stroke-linecap="round" stroke-linejoin="round"/>
<path d="M19.2495 19.7247C18.8398 19.8945 18.3701 19.6947 18.2102 19.2951C18.1311 19.0991 18.133 18.8796 18.2154 18.6849C18.2978 18.4902 18.4541 18.3361 18.6499 18.2563L20.2487 17.587C20.4449 17.5079 20.6644 17.5098 20.8592 17.5921C21.054 17.6745 21.2082 17.8307 21.288 18.0265C21.3671 18.2226 21.3652 18.442 21.2828 18.6367C21.2004 18.8314 21.0442 18.9856 20.8483 19.0654M19.2495 19.7247L20.8483 19.0654M19.2495 19.7247C19.0554 19.8064 18.9014 19.9613 18.821 20.1558C18.7405 20.3503 18.7401 20.5687 18.8198 20.7636C18.9897 21.1631 19.4493 21.3629 19.859 21.2031L21.4579 20.5338C21.6537 20.454 21.81 20.2999 21.8924 20.1052C21.9748 19.9104 21.9766 19.691 21.8975 19.4949C21.8158 19.3009 21.6608 19.147 21.4663 19.0666C21.2717 18.9862 21.0532 18.9857 20.8583 19.0654H20.8483M22.2673 15.9887C21.5211 16.2964 20.6834 16.2956 19.9378 15.9866C19.1922 15.6776 18.5997 15.0856 18.2902 14.3404C18.2105 14.1456 18.2109 13.9272 18.2914 13.7327C18.3718 13.5382 18.5258 13.3832 18.7199 13.3015C18.9148 13.2219 19.1332 13.2223 19.3278 13.3028C19.5224 13.3832 19.6774 13.5371 19.7591 13.7311C19.9053 14.0884 20.1873 14.3731 20.5432 14.5229C20.8991 14.6727 21.2999 14.6753 21.6577 14.5302C21.7564 14.4692 21.8672 14.4304 21.9824 14.4164C22.0976 14.4025 22.2144 14.4138 22.3248 14.4496C22.4352 14.4853 22.5365 14.5447 22.6216 14.6235C22.7067 14.7023 22.7737 14.7987 22.8178 14.906C22.8619 15.0133 22.8821 15.1289 22.877 15.2448C22.8719 15.3607 22.8417 15.4741 22.7883 15.5771C22.735 15.6801 22.6599 15.7703 22.5682 15.8414C22.4765 15.9125 22.3704 15.9627 22.2573 15.9887H22.2673Z" stroke="white" stroke-width="1.23" stroke-miterlimit="10" stroke-linecap="round" stroke-linejoin="round"/>
<path d="M21.4579 20.5338L22.4671 20.1143C23.0511 19.871 23.5153 19.407 23.7586 18.8233C24.0019 18.2395 24.0046 17.5833 23.7662 16.9976C23.5437 16.454 23.127 16.0125 22.597 15.7589" stroke="white" stroke-width="1.23" stroke-miterlimit="10" stroke-linecap="round" stroke-linejoin="round"/>
<path d="M23.1666 8.52665H18.3201C18.269 8.52794 18.2185 8.53932 18.1717 8.56013C18.1249 8.58093 18.0827 8.61076 18.0475 8.64791C18.0122 8.68506 17.9846 8.72879 17.9662 8.77662C17.9478 8.82445 17.9391 8.87543 17.9404 8.92665C17.9404 9.12665 18.1103 9.30665 18.3201 9.30665H23.1666C23.27 9.30665 23.3691 9.26556 23.4422 9.19242C23.5153 9.11928 23.5563 9.02008 23.5563 8.91665C23.5563 8.86458 23.5459 8.81304 23.5257 8.76506C23.5055 8.71707 23.4759 8.67363 23.4387 8.63728C23.4014 8.60093 23.3573 8.57242 23.3088 8.55341C23.2604 8.53441 23.2086 8.52531 23.1566 8.52665H23.1666Z" fill="#3736A2"/>
<path d="M17.3708 26.1179C17.2502 26.0454 17.1119 26.0074 16.9711 26.008C16.8487 26.0095 16.7283 26.0391 16.6191 26.0946C16.51 26.15 16.415 26.2297 16.3416 26.3276C16.2692 26.2286 16.1745 26.148 16.0651 26.0925C15.9557 26.0369 15.8347 26.008 15.712 26.008C15.5712 26.0074 15.433 26.0454 15.3123 26.1179C15.1212 26.2413 14.9839 26.4326 14.9283 26.6532C14.8727 26.8738 14.9028 27.1073 15.0125 27.3066C15.2124 27.6462 15.9618 28.2256 16.2416 28.4354C16.2707 28.4565 16.3057 28.4679 16.3416 28.4679C16.3775 28.4679 16.4125 28.4565 16.4415 28.4354C16.7213 28.2356 17.4807 27.6362 17.6606 27.3066C17.7704 27.1073 17.8005 26.8738 17.7448 26.6532C17.6892 26.4326 17.552 26.2413 17.3608 26.1179H17.3708ZM21.7676 26.1179C21.647 26.0454 21.5087 26.0074 21.3679 26.008C21.2472 26.011 21.1288 26.0414 21.0214 26.0967C20.9141 26.1521 20.8208 26.231 20.7484 26.3276C20.676 26.2286 20.5813 26.148 20.4719 26.0925C20.3625 26.0369 20.2415 26.008 20.1188 26.008C19.978 26.0074 19.8398 26.0454 19.7191 26.1179C19.528 26.2413 19.3907 26.4326 19.3351 26.6532C19.2795 26.8738 19.3096 27.1073 19.4193 27.3066C19.6092 27.6462 20.3686 28.2256 20.6484 28.4354C20.6775 28.4565 20.7125 28.4679 20.7484 28.4679C20.7843 28.4679 20.8193 28.4565 20.8483 28.4354C21.3068 28.1196 21.7174 27.7394 22.0674 27.3066C22.1772 27.1073 22.2073 26.8738 22.1516 26.6532C22.096 26.4326 21.9588 26.2413 21.7676 26.1179ZM26.1744 26.1179C26.0538 26.0454 25.9155 26.0074 25.7747 26.008C25.6523 26.0095 25.5319 26.0391 25.4227 26.0946C25.3136 26.15 25.2186 26.2297 25.1452 26.3276C25.0728 26.2286 24.9781 26.148 24.8687 26.0925C24.7593 26.0369 24.6383 26.008 24.5156 26.008C24.3748 26.0074 24.2366 26.0454 24.1159 26.1179C23.9265 26.2429 23.7913 26.4349 23.7375 26.6553C23.6838 26.8758 23.7154 27.1085 23.8261 27.3066C24.006 27.6462 24.7655 28.2256 25.0452 28.4354C25.0743 28.4565 25.1093 28.4679 25.1452 28.4679C25.1811 28.4679 25.2161 28.4565 25.2451 28.4354C25.5249 28.2356 26.2843 27.6362 26.4742 27.3066C26.584 27.1073 26.6141 26.8738 26.5584 26.6532C26.5028 26.4326 26.3656 26.2413 26.1744 26.1179Z" fill="#3736A2"/>
</g>
<defs>
<clipPath id="clip0_12_119">
<rect width="39.971" height="39.9573" fill="white" transform="translate(0.493103 0.365387)"/>
</clipPath>
</defs>
</svg>
