<svg width="41" height="41" viewBox="0 0 41 41" fill="none" xmlns="http://www.w3.org/2000/svg">
<g clip-path="url(#clip0_12_87)">
<path d="M30.955 0.276703H10.9695C5.45066 0.276703 0.976761 4.74907 0.976761 10.266V30.2446C0.976761 35.7616 5.45066 40.234 10.9695 40.234H30.955C36.4738 40.234 40.9477 35.7616 40.9477 30.2446V10.266C40.9477 4.74907 36.4738 0.276703 30.955 0.276703Z" fill="white"/>
<path d="M18.4041 25.8793H23.5204L26.2984 33.7309H15.6261L18.4041 25.8793Z" fill="white" stroke="#3736A2" stroke-width="1.75" stroke-miterlimit="10" stroke-linecap="round" stroke-linejoin="round"/>
<path d="M7.91172 6.93959H34.0127C34.3777 6.94221 34.7269 7.08828 34.985 7.34624C35.243 7.6042 35.3891 7.95332 35.3917 8.31812V27.2678C35.3931 27.4502 35.3584 27.631 35.2898 27.8C35.2213 27.9689 35.12 28.1227 34.992 28.2526C34.8639 28.3825 34.7116 28.4859 34.5435 28.5568C34.3755 28.6278 34.1952 28.665 34.0127 28.6664H7.92171C7.73762 28.6677 7.55511 28.6324 7.38477 28.5626C7.21444 28.4928 7.05969 28.3898 6.92952 28.2597C6.79934 28.1296 6.69634 27.9749 6.62651 27.8046C6.55667 27.6343 6.5214 27.4519 6.52273 27.2678V8.32811C6.5214 8.14408 6.55667 7.96163 6.62651 7.79135C6.69634 7.62108 6.79934 7.46638 6.92952 7.33625C7.05969 7.20612 7.21444 7.10316 7.38477 7.03335C7.55511 6.96354 7.73762 6.92827 7.92171 6.9296L7.91172 6.93959Z" fill="white"/>
<path d="M7.91172 6.93959H34.0127C34.3777 6.94221 34.7269 7.08828 34.985 7.34624C35.243 7.6042 35.3891 7.95332 35.3917 8.31812V27.2678C35.3931 27.4502 35.3584 27.631 35.2898 27.8C35.2213 27.9689 35.12 28.1227 34.992 28.2526C34.8639 28.3825 34.7116 28.4859 34.5435 28.5568C34.3755 28.6278 34.1952 28.665 34.0127 28.6664H7.92171C7.73762 28.6677 7.55511 28.6324 7.38477 28.5626C7.21444 28.4928 7.05969 28.3898 6.92952 28.2597C6.79934 28.1296 6.69634 27.9749 6.62651 27.8046C6.55667 27.6343 6.5214 27.4519 6.52273 27.2678V8.32811C6.5214 8.14408 6.55667 7.96163 6.62651 7.79135C6.69634 7.62108 6.79934 7.46638 6.92952 7.33625C7.05969 7.20612 7.21444 7.10316 7.38477 7.03335C7.55511 6.96354 7.73762 6.92827 7.92171 6.9296L7.91172 6.93959Z" stroke="#3736A2" stroke-width="1.75" stroke-miterlimit="10" stroke-linecap="round" stroke-linejoin="round"/>
<path d="M6.53273 9.7066H35.3918M6.53273 25.8893H35.3918" stroke="#3736A2" stroke-width="1.23" stroke-miterlimit="10" stroke-linecap="round" stroke-linejoin="round"/>
<path d="M32.8936 12.2039H22.2113V23.392H32.9036V12.2039H32.8936Z" fill="#3736A2" stroke="#3736A2" stroke-width="1.23" stroke-miterlimit="10" stroke-linecap="round" stroke-linejoin="round"/>
<path d="M9.03091 12.2039H19.7131M9.02092 14.4416H19.7131M9.02092 16.6792H19.7131M9.02092 18.9068H19.7131M9.02092 21.1544H19.7131M9.02092 23.392H19.7131" stroke="#3736A2" stroke-width="1.23" stroke-miterlimit="10" stroke-linecap="round" stroke-linejoin="round"/>
<path d="M27.5575 14.1918L28.3769 16.2796L30.5253 15.6103L29.4061 17.5582L31.2548 18.8269L29.0364 19.1665L29.1963 21.4041L27.5575 19.8857L25.9086 21.4041L26.0685 19.1665L23.8501 18.8269L25.6988 17.5582L24.5896 15.6103L26.7281 16.2796L27.5575 14.1818V14.1918Z" fill="white" stroke="white" stroke-width="0.25" stroke-miterlimit="10" stroke-linecap="round" stroke-linejoin="round"/>
</g>
<defs>
<clipPath id="clip0_12_87">
<rect width="39.971" height="39.9573" fill="white" transform="translate(0.976761 0.276703)"/>
</clipPath>
</defs>
</svg>
