<svg width="41" height="41" viewBox="0 0 41 41" fill="none" xmlns="http://www.w3.org/2000/svg">
<g clip-path="url(#clip0_12_96)">
<path d="M30.955 0.188049H10.9695C5.45066 0.188049 0.976761 4.66042 0.976761 10.1774V30.156C0.976761 35.6729 5.45066 40.1453 10.9695 40.1453H30.955C36.4738 40.1453 40.9477 35.6729 40.9477 30.156V10.1774C40.9477 4.66042 36.4738 0.188049 30.955 0.188049Z" fill="white"/>
<path d="M31.9143 34.6012H9.86031V5.73212H25.0992L31.9143 12.5448V34.6012Z" fill="white"/>
<path fill-rule="evenodd" clip-rule="evenodd" d="M25.9786 22.674L24.7095 22.4443C24.6347 22.1726 24.5202 21.9134 24.3698 21.6751L25.1292 20.5763C25.1892 20.5063 25.1892 20.3565 25.0892 20.2566L24.1899 19.3576C24.1453 19.3181 24.0892 19.294 24.0299 19.2886C23.9706 19.2832 23.9111 19.2969 23.8601 19.3276L22.7809 20.0868C22.5411 19.927 22.2613 19.847 22.0015 19.7472L21.7816 18.4785C21.7417 18.3686 21.6218 18.2687 21.5019 18.2687H20.2228C20.1129 18.2687 19.983 18.3586 19.963 18.4685L19.7231 19.7671C19.4646 19.8388 19.2161 19.9429 18.9837 20.0768L17.9145 19.3576C17.8145 19.2577 17.6746 19.2876 17.5747 19.3875L16.6754 20.2866C16.6312 20.3282 16.6031 20.384 16.5958 20.4442C16.5885 20.5044 16.6025 20.5653 16.6354 20.6162L17.3649 21.6751C17.235 21.9248 17.135 22.1746 17.0551 22.4443L15.786 22.674C15.6761 22.674 15.5762 22.7939 15.5762 22.9238V24.2224C15.5762 24.3323 15.6661 24.4421 15.776 24.4421L17.0551 24.7019C17.1234 24.9665 17.2385 25.2168 17.3948 25.4411L16.6754 26.4999C16.5754 26.5998 16.6054 26.7497 16.7053 26.8396L17.6047 27.7486C17.7046 27.8285 17.8445 27.8585 17.9444 27.7886L18.9837 27.0693C19.2235 27.2092 19.4833 27.2891 19.7231 27.349L19.963 28.6576C19.983 28.7875 20.1029 28.8674 20.2228 28.8674H21.5019C21.5637 28.8683 21.6242 28.8494 21.6746 28.8135C21.7249 28.7775 21.7625 28.7264 21.7816 28.6676L22.0015 27.389C22.2613 27.2891 22.5411 27.2092 22.7809 27.0893L23.8401 27.7985C23.9201 27.8685 24.07 27.8685 24.1599 27.7886L25.0593 26.8695C25.1592 26.7696 25.1892 26.6298 25.0892 26.5299L24.3698 25.4311C24.5296 25.2113 24.6296 24.9716 24.7095 24.7019L25.9786 24.4421C26.0885 24.4421 26.1884 24.3422 26.1884 24.2224V22.9238C26.1884 22.8039 26.0885 22.674 25.9886 22.674H25.9786ZM20.9023 25.7907C20.3139 25.7947 19.7481 25.5648 19.3293 25.1518C18.9104 24.7387 18.6729 24.1762 18.6689 23.588C18.6649 22.9999 18.8948 22.4343 19.3081 22.0156C19.7213 21.5969 20.284 21.3594 20.8723 21.3554C21.4607 21.3515 22.0265 21.5813 22.4453 21.9944C22.8642 22.4074 23.1017 22.9699 23.1057 23.5581C23.1097 24.1462 22.8798 24.7119 22.4665 25.1306C22.0533 25.5493 21.4906 25.7867 20.9023 25.7907Z" fill="#3736A2"/>
<path d="M31.9143 34.6012H9.86031V5.73212H25.0992L31.9143 12.5448V34.6012Z" stroke="#3736A2" stroke-width="1.75" stroke-miterlimit="10" stroke-linecap="round" stroke-linejoin="round"/>
<path d="M29.2862 15.172H12.4784V31.974H29.2862V15.172Z" stroke="#3736A2" stroke-width="1.23" stroke-miterlimit="10" stroke-linecap="round" stroke-linejoin="round"/>
<path d="M25.0992 5.74213V12.5449H31.9143" stroke="#3736A2" stroke-width="1.75" stroke-miterlimit="10" stroke-linecap="round" stroke-linejoin="round"/>
</g>
<defs>
<clipPath id="clip0_12_96">
<rect width="39.971" height="39.9573" fill="white" transform="translate(0.976761 0.188049)"/>
</clipPath>
</defs>
</svg>
