<svg width="41" height="41" viewBox="0 0 41 41" fill="none" xmlns="http://www.w3.org/2000/svg">
<g clip-path="url(#clip0_12_109)">
<mask id="mask0_12_109" style="mask-type:luminance" maskUnits="userSpaceOnUse" x="0" y="0" width="41" height="41">
<path d="M30.955 0.365387H10.9695C5.45066 0.365387 0.976761 4.83776 0.976761 10.3547V30.3333C0.976761 35.8503 5.45066 40.3227 10.9695 40.3227H30.955C36.4738 40.3227 40.9477 35.8503 40.9477 30.3333V10.3547C40.9477 4.83776 36.4738 0.365387 30.955 0.365387Z" fill="white"/>
</mask>
<g mask="url(#mask0_12_109)">
<path d="M30.955 0.365387H10.9695C5.45066 0.365387 0.976761 4.83776 0.976761 10.3547V30.3333C0.976761 35.8503 5.45066 40.3227 10.9695 40.3227H30.955C36.4738 40.3227 40.9477 35.8503 40.9477 30.3333V10.3547C40.9477 4.83776 36.4738 0.365387 30.955 0.365387Z" fill="white"/>
<path d="M13.1179 13.2017C13.1179 11.1219 13.9444 9.12739 15.4155 7.6568C16.8866 6.18621 18.8818 5.36005 20.9622 5.36005C23.0427 5.36005 25.0379 6.18621 26.509 7.6568C27.9801 9.12739 28.8065 11.1219 28.8065 13.2017" stroke="#3736A2" stroke-width="1.75" stroke-miterlimit="10" stroke-linecap="round" stroke-linejoin="round"/>
<path d="M34.0128 34.9284H7.91173C7.54417 34.9232 7.19345 34.7735 6.93539 34.5118C6.67734 34.2501 6.53269 33.8974 6.53273 33.5299V14.6002C6.53273 13.831 7.15228 13.2116 7.91173 13.2116H34.0128C34.7722 13.2116 35.3918 13.831 35.3918 14.6002V33.5299C35.3918 34.2891 34.7722 34.9084 34.0128 34.9084V34.9284Z" fill="white"/>
<path d="M6.53273 24.06H35.3918M34.0128 34.9284H7.91173C7.54417 34.9232 7.19345 34.7735 6.93539 34.5118C6.67734 34.2501 6.53269 33.8974 6.53273 33.5299V14.6002C6.53273 13.831 7.15228 13.2116 7.91173 13.2116H34.0128C34.7722 13.2116 35.3918 13.831 35.3918 14.6002V33.5299C35.3918 34.2891 34.7722 34.9084 34.0128 34.9084V34.9284Z" stroke="#3736A2" stroke-width="1.75" stroke-miterlimit="10" stroke-linecap="round" stroke-linejoin="round"/>
<path d="M20.9622 26.8371C21.327 26.8371 21.6883 26.7652 22.0253 26.6257C22.3624 26.4861 22.6686 26.2816 22.9266 26.0237C23.1845 25.7658 23.3891 25.4597 23.5288 25.1228C23.6684 24.7858 23.7402 24.4247 23.7402 24.06C23.7402 23.6954 23.6684 23.3342 23.5288 22.9973C23.3891 22.6604 23.1845 22.3543 22.9266 22.0964C22.6686 21.8385 22.3624 21.634 22.0253 21.4944C21.6883 21.3548 21.327 21.283 20.9622 21.283C20.2255 21.283 19.5189 21.5756 18.9979 22.0964C18.4769 22.6172 18.1842 23.3235 18.1842 24.06C18.1842 24.7966 18.4769 25.5029 18.9979 26.0237C19.5189 26.5445 20.2255 26.8371 20.9622 26.8371Z" fill="#3736A2" stroke="#3736A2" stroke-width="1.23" stroke-miterlimit="10" stroke-linecap="round" stroke-linejoin="round"/>
</g>
</g>
<defs>
<clipPath id="clip0_12_109">
<rect width="39.971" height="39.9573" fill="white" transform="translate(0.976761 0.365387)"/>
</clipPath>
</defs>
</svg>
