<svg width="25" height="32" viewBox="0 0 25 32" fill="none" xmlns="http://www.w3.org/2000/svg">
<path d="M23.9143 30.6012H1.86031V1.73212H17.0992L23.9143 8.54483V30.6012Z" fill="white"/>
<path fill-rule="evenodd" clip-rule="evenodd" d="M17.9786 18.674L16.7095 18.4443C16.6347 18.1726 16.5202 17.9134 16.3698 17.6751L17.1292 16.5763C17.1892 16.5063 17.1892 16.3565 17.0892 16.2566L16.1899 15.3576C16.1453 15.3181 16.0892 15.294 16.0299 15.2886C15.9706 15.2832 15.9111 15.2969 15.8601 15.3276L14.7809 16.0868C14.5411 15.927 14.2613 15.847 14.0015 15.7472L13.7816 14.4785C13.7417 14.3686 13.6218 14.2687 13.5019 14.2687H12.2228C12.1129 14.2687 11.983 14.3586 11.963 14.4685L11.7231 15.7671C11.4646 15.8388 11.2161 15.9429 10.9837 16.0768L9.91446 15.3576C9.81453 15.2577 9.67463 15.2876 9.57471 15.3875L8.67536 16.2866C8.63124 16.3282 8.60309 16.384 8.59579 16.4442C8.58849 16.5044 8.6025 16.5653 8.63539 16.6162L9.36486 17.6751C9.23495 17.9248 9.13502 18.1746 9.05508 18.4443L7.786 18.674C7.67608 18.674 7.57616 18.7939 7.57616 18.9238V20.2224C7.57616 20.3323 7.66609 20.4421 7.77601 20.4421L9.05508 20.7019C9.12345 20.9665 9.2385 21.2168 9.39484 21.4411L8.67536 22.4999C8.57543 22.5998 8.60541 22.7497 8.70534 22.8396L9.60468 23.7486C9.70461 23.8285 9.84451 23.8585 9.94444 23.7886L10.9837 23.0693C11.2235 23.2092 11.4833 23.2891 11.7231 23.349L11.963 24.6576C11.983 24.7875 12.1029 24.8674 12.2228 24.8674H13.5019C13.5637 24.8683 13.6242 24.8494 13.6746 24.8135C13.7249 24.7775 13.7625 24.7264 13.7816 24.6676L14.0015 23.389C14.2613 23.2891 14.5411 23.2092 14.7809 23.0893L15.8402 23.7985C15.9201 23.8685 16.07 23.8685 16.1599 23.7886L17.0593 22.8695C17.1592 22.7696 17.1892 22.6298 17.0892 22.5299L16.3698 21.4311C16.5296 21.2113 16.6296 20.9716 16.7095 20.7019L17.9786 20.4421C18.0885 20.4421 18.1884 20.3422 18.1884 20.2224V18.9238C18.1884 18.8039 18.0885 18.674 17.9886 18.674H17.9786ZM12.9023 21.7907C12.3139 21.7947 11.7481 21.5648 11.3293 21.1518C10.9104 20.7387 10.6729 20.1762 10.6689 19.588C10.6649 18.9999 10.8948 18.4343 11.3081 18.0156C11.7213 17.5969 12.284 17.3594 12.8723 17.3554C13.4607 17.3515 14.0265 17.5813 14.4453 17.9944C14.8642 18.4074 15.1017 18.9699 15.1057 19.5581C15.1097 20.1462 14.8798 20.7119 14.4665 21.1306C14.0533 21.5493 13.4906 21.7867 12.9023 21.7907Z" fill="#3736A2"/>
<path d="M23.9143 30.6012H1.86031V1.73212H17.0992L23.9143 8.54483V30.6012Z" stroke="#3736A2" stroke-width="1.75" stroke-miterlimit="10" stroke-linecap="round" stroke-linejoin="round"/>
<path d="M21.2862 11.172H4.47841V27.974H21.2862V11.172Z" stroke="#3736A2" stroke-width="1.23" stroke-miterlimit="10" stroke-linecap="round" stroke-linejoin="round"/>
<path d="M17.0992 1.74213V8.54485H23.9143" stroke="#3736A2" stroke-width="1.75" stroke-miterlimit="10" stroke-linecap="round" stroke-linejoin="round"/>
</svg>
