<svg width="32" height="29" viewBox="0 0 32 29" fill="none" xmlns="http://www.w3.org/2000/svg">
<path d="M13.4041 19.8793H18.5204L21.2984 27.7309H10.6261L13.4041 19.8793Z" fill="white" stroke="#3736A2" stroke-width="1.75" stroke-miterlimit="10" stroke-linecap="round" stroke-linejoin="round"/>
<path d="M2.91172 0.939591H29.0127C29.3777 0.942206 29.7269 1.08828 29.985 1.34624C30.243 1.6042 30.3891 1.95332 30.3917 2.31812V21.2678C30.3931 21.4502 30.3584 21.631 30.2898 21.8C30.2213 21.9689 30.12 22.1227 29.992 22.2526C29.8639 22.3825 29.7116 22.4859 29.5435 22.5568C29.3755 22.6278 29.1952 22.665 29.0127 22.6664H2.92171C2.73762 22.6677 2.55511 22.6324 2.38477 22.5626C2.21444 22.4928 2.05969 22.3898 1.92952 22.2597C1.79934 22.1296 1.69634 21.9749 1.62651 21.8046C1.55667 21.6343 1.5214 21.4519 1.52273 21.2678V2.32811C1.5214 2.14408 1.55667 1.96163 1.62651 1.79135C1.69634 1.62108 1.79934 1.46638 1.92952 1.33625C2.05969 1.20612 2.21444 1.10316 2.38477 1.03335C2.55511 0.963539 2.73762 0.928273 2.92171 0.929602L2.91172 0.939591Z" fill="white"/>
<path d="M2.91172 0.939591H29.0127C29.3777 0.942206 29.7269 1.08828 29.985 1.34624C30.243 1.6042 30.3891 1.95332 30.3917 2.31812V21.2678C30.3931 21.4502 30.3584 21.631 30.2898 21.8C30.2213 21.9689 30.12 22.1227 29.992 22.2526C29.8639 22.3825 29.7116 22.4859 29.5435 22.5568C29.3755 22.6278 29.1952 22.665 29.0127 22.6664H2.92171C2.73762 22.6677 2.55511 22.6324 2.38477 22.5626C2.21444 22.4928 2.05969 22.3898 1.92952 22.2597C1.79934 22.1296 1.69634 21.9749 1.62651 21.8046C1.55667 21.6343 1.5214 21.4519 1.52273 21.2678V2.32811C1.5214 2.14408 1.55667 1.96163 1.62651 1.79135C1.69634 1.62108 1.79934 1.46638 1.92952 1.33625C2.05969 1.20612 2.21444 1.10316 2.38477 1.03335C2.55511 0.963539 2.73762 0.928273 2.92171 0.929602L2.91172 0.939591Z" stroke="#3736A2" stroke-width="1.75" stroke-miterlimit="10" stroke-linecap="round" stroke-linejoin="round"/>
<path d="M1.53273 3.7066H30.3918M1.53273 19.8893H30.3918" stroke="#3736A2" stroke-width="1.23" stroke-miterlimit="10" stroke-linecap="round" stroke-linejoin="round"/>
<path d="M27.8936 6.20395H17.2113V17.392H27.9036V6.20395H27.8936Z" fill="#3736A2" stroke="#3736A2" stroke-width="1.23" stroke-miterlimit="10" stroke-linecap="round" stroke-linejoin="round"/>
<path d="M4.03091 6.20395H14.7131M4.02092 8.44156H14.7131M4.02092 10.6792H14.7131M4.02092 12.9068H14.7131M4.02092 15.1544H14.7131M4.02092 17.392H14.7131" stroke="#3736A2" stroke-width="1.23" stroke-miterlimit="10" stroke-linecap="round" stroke-linejoin="round"/>
<path d="M22.5575 8.19181L23.3769 10.2796L25.5253 9.6103L24.4061 11.5582L26.2548 12.8269L24.0364 13.1665L24.1963 15.4041L22.5575 13.8857L20.9086 15.4041L21.0685 13.1665L18.8501 12.8269L20.6988 11.5582L19.5896 9.6103L21.7281 10.2796L22.5575 8.18182V8.19181Z" fill="white" stroke="white" stroke-width="0.25" stroke-miterlimit="10" stroke-linecap="round" stroke-linejoin="round"/>
</svg>
