<svg width="33" height="29" viewBox="0 0 33 29" fill="none" xmlns="http://www.w3.org/2000/svg">
<path d="M10.5129 1.02826H22.9739C23.1563 1.02695 23.3372 1.06156 23.5062 1.13013C23.6752 1.19869 23.8291 1.29987 23.959 1.42788C24.0889 1.55589 24.1923 1.70822 24.2633 1.87618C24.3343 2.04415 24.3715 2.22445 24.3729 2.40679V26.4311C24.3742 26.6151 24.3389 26.7976 24.2691 26.9678C24.1992 27.1381 24.0962 27.2928 23.9661 27.4229C23.8359 27.5531 23.6811 27.656 23.5108 27.7259C23.3405 27.7957 23.158 27.8309 22.9739 27.8296H10.5129C10.3297 27.8296 10.1482 27.7934 9.97907 27.723C9.80989 27.6526 9.65632 27.5494 9.52721 27.4194C9.3981 27.2894 9.296 27.1351 9.22679 26.9655C9.15757 26.7959 9.12262 26.6143 9.12394 26.4311V2.40679C9.12524 2.22445 9.16247 2.04415 9.23348 1.87618C9.3045 1.70822 9.40791 1.55589 9.53782 1.42788C9.66773 1.29987 9.82159 1.19869 9.99061 1.13013C10.1596 1.06156 10.3405 1.02695 10.5229 1.02826H10.5129Z" fill="white" stroke="#3736A2" stroke-width="1.75" stroke-miterlimit="10" stroke-linecap="round" stroke-linejoin="round"/>
<path d="M1.48947 14.4239H5.11684M3.56796 9.4093L6.13609 11.9766M3.56796 19.4286L6.13609 16.8713M31.9973 14.4239H28.3699M29.9288 19.4386L27.3507 16.8713M29.9288 9.4093L27.3507 11.9766" stroke="#3736A2" stroke-width="1.75" stroke-miterlimit="10" stroke-linecap="round" stroke-linejoin="round"/>
<path d="M22.5742 5.42355H10.9126V17.0711H22.5742V5.42355Z" fill="#3736A2" stroke="#3736A2" stroke-width="1.23" stroke-miterlimit="10" stroke-linecap="round" stroke-linejoin="round"/>
<path d="M15.6392 10.1285L14.0304 10.7878C13.8363 10.8695 13.6823 11.0245 13.6019 11.219C13.5214 11.4135 13.521 11.6319 13.6007 11.8267C13.7606 12.2263 14.2302 12.4261 14.6399 12.2663L16.2388 11.597C16.4328 11.5153 16.5868 11.3603 16.6672 11.1658C16.7477 10.9713 16.7481 10.7529 16.6684 10.5581C16.629 10.4612 16.5708 10.3731 16.497 10.2989C16.4232 10.2247 16.3354 10.1659 16.2387 10.1259C16.142 10.0859 16.0383 10.0656 15.9337 10.066C15.8291 10.0665 15.7256 10.0877 15.6292 10.1285H15.6392Z" stroke="white" stroke-width="1.23" stroke-miterlimit="10" stroke-linecap="round" stroke-linejoin="round"/>
<path d="M15.2495 13.7247C14.8398 13.8945 14.3701 13.6947 14.2102 13.2951C14.1311 13.0991 14.133 12.8796 14.2154 12.6849C14.2978 12.4902 14.4541 12.3361 14.6499 12.2563L16.2487 11.587C16.4449 11.5079 16.6644 11.5098 16.8592 11.5921C17.054 11.6745 17.2082 11.8307 17.288 12.0265C17.3671 12.2226 17.3652 12.442 17.2828 12.6367C17.2004 12.8314 17.0442 12.9856 16.8483 13.0654M15.2495 13.7247L16.8483 13.0654M15.2495 13.7247C15.0554 13.8064 14.9014 13.9613 14.821 14.1558C14.7405 14.3503 14.7401 14.5687 14.8198 14.7636C14.9897 15.1631 15.4493 15.3629 15.859 15.2031L17.4579 14.5338C17.6537 14.454 17.81 14.2999 17.8924 14.1052C17.9748 13.9104 17.9766 13.691 17.8975 13.4949C17.8158 13.3009 17.6608 13.147 17.4663 13.0666C17.2717 12.9862 17.0532 12.9857 16.8583 13.0654H16.8483M18.2673 9.98868C17.5211 10.2964 16.6834 10.2956 15.9378 9.98664C15.1922 9.67765 14.5997 9.08562 14.2902 8.34044C14.2105 8.1456 14.2109 7.92721 14.2914 7.7327C14.3718 7.53818 14.5258 7.38325 14.7199 7.30155C14.9148 7.2219 15.1332 7.22234 15.3278 7.30276C15.5224 7.38319 15.6774 7.53711 15.7591 7.73109C15.9053 8.08835 16.1873 8.37309 16.5432 8.52288C16.8991 8.67268 17.2999 8.67533 17.6577 8.53024C17.7564 8.4692 17.8672 8.43037 17.9824 8.41644C18.0976 8.40251 18.2144 8.41382 18.3248 8.44958C18.4352 8.48534 18.5365 8.54469 18.6216 8.62352C18.7067 8.70234 18.7737 8.79875 18.8178 8.90604C18.8619 9.01333 18.8821 9.12893 18.877 9.24482C18.8719 9.3607 18.8417 9.47409 18.7883 9.57711C18.735 9.68013 18.6599 9.77031 18.5682 9.84138C18.4765 9.91245 18.3704 9.96271 18.2573 9.98868H18.2673Z" stroke="white" stroke-width="1.23" stroke-miterlimit="10" stroke-linecap="round" stroke-linejoin="round"/>
<path d="M17.4579 14.5338L18.4671 14.1143C19.0511 13.871 19.5153 13.407 19.7586 12.8233C20.0019 12.2395 20.0046 11.5833 19.7662 10.9976C19.5437 10.454 19.127 10.0125 18.597 9.75891" stroke="white" stroke-width="1.23" stroke-miterlimit="10" stroke-linecap="round" stroke-linejoin="round"/>
<path d="M19.1666 2.52665H14.3201C14.269 2.52794 14.2185 2.53932 14.1717 2.56013C14.1249 2.58093 14.0827 2.61076 14.0475 2.64791C14.0122 2.68506 13.9846 2.72879 13.9662 2.77662C13.9478 2.82445 13.9391 2.87543 13.9404 2.92665C13.9404 3.12665 14.1103 3.30665 14.3201 3.30665H19.1666C19.27 3.30665 19.3691 3.26556 19.4422 3.19242C19.5153 3.11928 19.5563 3.02008 19.5563 2.91665C19.5563 2.86458 19.5459 2.81304 19.5257 2.76506C19.5055 2.71707 19.4759 2.67363 19.4387 2.63728C19.4014 2.60093 19.3573 2.57242 19.3088 2.55341C19.2604 2.53441 19.2086 2.52531 19.1566 2.52665H19.1666Z" fill="#3736A2"/>
<path d="M13.3708 20.1179C13.2502 20.0454 13.1119 20.0074 12.9711 20.008C12.8487 20.0095 12.7283 20.0391 12.6191 20.0946C12.51 20.15 12.415 20.2297 12.3416 20.3276C12.2692 20.2286 12.1745 20.148 12.0651 20.0925C11.9557 20.0369 11.8347 20.008 11.712 20.008C11.5712 20.0074 11.433 20.0454 11.3123 20.1179C11.1212 20.2413 10.9839 20.4326 10.9283 20.6532C10.8727 20.8738 10.9028 21.1073 11.0125 21.3066C11.2124 21.6462 11.9618 22.2256 12.2416 22.4354C12.2707 22.4565 12.3057 22.4679 12.3416 22.4679C12.3775 22.4679 12.4125 22.4565 12.4415 22.4354C12.7213 22.2356 13.4807 21.6362 13.6606 21.3066C13.7704 21.1073 13.8005 20.8738 13.7448 20.6532C13.6892 20.4326 13.552 20.2413 13.3608 20.1179H13.3708ZM17.7676 20.1179C17.647 20.0454 17.5087 20.0074 17.3679 20.008C17.2472 20.011 17.1288 20.0414 17.0214 20.0967C16.9141 20.1521 16.8208 20.231 16.7484 20.3276C16.676 20.2286 16.5813 20.148 16.4719 20.0925C16.3625 20.0369 16.2415 20.008 16.1188 20.008C15.978 20.0074 15.8398 20.0454 15.7191 20.1179C15.528 20.2413 15.3907 20.4326 15.3351 20.6532C15.2795 20.8738 15.3096 21.1073 15.4193 21.3066C15.6092 21.6462 16.3686 22.2256 16.6484 22.4354C16.6775 22.4565 16.7125 22.4679 16.7484 22.4679C16.7843 22.4679 16.8193 22.4565 16.8483 22.4354C17.3068 22.1196 17.7174 21.7394 18.0674 21.3066C18.1772 21.1073 18.2073 20.8738 18.1516 20.6532C18.096 20.4326 17.9588 20.2413 17.7676 20.1179ZM22.1744 20.1179C22.0538 20.0454 21.9155 20.0074 21.7747 20.008C21.6523 20.0095 21.5319 20.0391 21.4227 20.0946C21.3136 20.15 21.2186 20.2297 21.1452 20.3276C21.0728 20.2286 20.9781 20.148 20.8687 20.0925C20.7593 20.0369 20.6383 20.008 20.5156 20.008C20.3748 20.0074 20.2366 20.0454 20.1159 20.1179C19.9265 20.2429 19.7913 20.4349 19.7375 20.6553C19.6838 20.8758 19.7154 21.1085 19.8261 21.3066C20.006 21.6462 20.7655 22.2256 21.0452 22.4354C21.0743 22.4565 21.1093 22.4679 21.1452 22.4679C21.1811 22.4679 21.2161 22.4565 21.2451 22.4354C21.5249 22.2356 22.2843 21.6362 22.4742 21.3066C22.584 21.1073 22.6141 20.8738 22.5584 20.6532C22.5028 20.4326 22.3656 20.2413 22.1744 20.1179Z" fill="#3736A2"/>
</svg>
