<svg width="33" height="32" viewBox="0 0 33 32" fill="none" xmlns="http://www.w3.org/2000/svg">
<path d="M16.4786 30.45C20.3082 30.45 23.9809 28.9276 26.6889 26.2177C29.3968 23.5078 30.9181 19.8324 30.9181 16C30.9181 12.1676 29.3968 8.4922 26.6889 5.7823C23.9809 3.07239 20.3082 1.54999 16.4786 1.54999C12.649 1.54999 8.97626 3.07239 6.26833 5.7823C3.56039 8.4922 2.03909 12.1676 2.03909 16C2.03909 19.8324 3.56039 23.5078 6.26833 26.2177C8.97626 28.9276 12.649 30.45 16.4786 30.45Z" fill="white"/>
<path d="M16.4786 30.45C20.3082 30.45 23.9809 28.9276 26.6889 26.2177C29.3968 23.5078 30.9181 19.8324 30.9181 16C30.9181 12.1676 29.3968 8.4922 26.6889 5.7823C23.9809 3.07239 20.3082 1.54999 16.4786 1.54999C12.649 1.54999 8.97626 3.07239 6.26833 5.7823C3.56039 8.4922 2.03909 12.1676 2.03909 16C2.03909 19.8324 3.56039 23.5078 6.26833 26.2177C8.97626 28.9276 12.649 30.45 16.4786 30.45Z" stroke="#3736A2" stroke-width="1.75" stroke-miterlimit="10" stroke-linecap="round" stroke-linejoin="round"/>
<path d="M2.04907 16H30.9081M16.4786 30.45C20.4657 30.45 23.6933 23.98 23.6933 16C23.6933 8.02 20.4757 1.56 16.4786 1.56C12.4915 1.56 9.26383 8.02 9.26383 16C9.26383 23.98 12.4915 30.45 16.4786 30.45Z" stroke="#3736A2" stroke-width="1.75" stroke-miterlimit="10" stroke-linecap="round" stroke-linejoin="round"/>
<path d="M6.70569 5.37C9.49081 7.55861 12.9376 8.73305 16.4786 8.7C20.2458 8.7 23.6734 7.44 26.2515 5.37M6.70569 26.63C9.49081 24.4414 12.9376 23.2669 16.4786 23.3C20.2458 23.3 23.6734 24.56 26.2515 26.63" stroke="#3736A2" stroke-width="1.75" stroke-miterlimit="10" stroke-linecap="round" stroke-linejoin="round"/>
<path d="M30.9081 5.13C29.962 5.13 29.0546 5.50612 28.3856 6.17563C27.7165 6.84513 27.3407 7.75317 27.3407 8.7C27.3407 6.73 25.7419 5.13 23.7733 5.13C25.7419 5.13 27.3407 3.53 27.3407 1.56C27.3407 3.53 28.9395 5.13 30.9081 5.13Z" fill="#3736A2" stroke="#3736A2" stroke-width="1.23" stroke-miterlimit="10" stroke-linecap="round" stroke-linejoin="round"/>
</svg>
