<svg width="32" height="32" viewBox="0 0 32 32" fill="none" xmlns="http://www.w3.org/2000/svg">
<path d="M8.11794 9.20166C8.11794 7.12193 8.94439 5.12739 10.4155 3.6568C11.8866 2.18621 13.8818 1.36005 15.9622 1.36005C18.0427 1.36005 20.0379 2.18621 21.509 3.6568C22.9801 5.12739 23.8065 7.12193 23.8065 9.20166" stroke="#3736A2" stroke-width="1.75" stroke-miterlimit="10" stroke-linecap="round" stroke-linejoin="round"/>
<path d="M29.0128 30.9284H2.91173C2.54417 30.9232 2.19345 30.7735 1.93539 30.5118C1.67734 30.2501 1.53269 29.8974 1.53273 29.5299V10.6002C1.53273 9.83098 2.15228 9.21164 2.91173 9.21164H29.0128C29.7722 9.21164 30.3918 9.83098 30.3918 10.6002V29.5299C30.3918 30.2891 29.7722 30.9084 29.0128 30.9084V30.9284Z" fill="white"/>
<path d="M1.53273 20.06H30.3918M29.0128 30.9284H2.91173C2.54417 30.9232 2.19345 30.7735 1.93539 30.5118C1.67734 30.2501 1.53269 29.8974 1.53273 29.5299V10.6002C1.53273 9.83098 2.15228 9.21164 2.91173 9.21164H29.0128C29.7722 9.21164 30.3918 9.83098 30.3918 10.6002V29.5299C30.3918 30.2891 29.7722 30.9084 29.0128 30.9084V30.9284Z" stroke="#3736A2" stroke-width="1.75" stroke-miterlimit="10" stroke-linecap="round" stroke-linejoin="round"/>
<path d="M15.9622 22.8371C16.327 22.8371 16.6883 22.7652 17.0253 22.6257C17.3624 22.4861 17.6686 22.2816 17.9266 22.0237C18.1845 21.7658 18.3891 21.4597 18.5288 21.1228C18.6684 20.7858 18.7402 20.4247 18.7402 20.06C18.7402 19.6954 18.6684 19.3343 18.5288 18.9973C18.3891 18.6604 18.1845 18.3543 17.9266 18.0964C17.6686 17.8385 17.3624 17.634 17.0253 17.4944C16.6883 17.3548 16.327 17.283 15.9622 17.283C15.2255 17.283 14.5189 17.5756 13.9979 18.0964C13.4769 18.6172 13.1842 19.3235 13.1842 20.06C13.1842 20.7966 13.4769 21.5029 13.9979 22.0237C14.5189 22.5445 15.2255 22.8371 15.9622 22.8371Z" fill="#3736A2" stroke="#3736A2" stroke-width="1.23" stroke-miterlimit="10" stroke-linecap="round" stroke-linejoin="round"/>
</svg>
