<svg width="430" height="312" viewBox="0 0 430 312" fill="none" xmlns="http://www.w3.org/2000/svg">
<path d="M412.272 160.698C407.543 145.037 399.322 132.29 387.556 122.499C375.951 112.586 361.393 106.307 343.935 103.621C317.504 99.5552 295.299 105.026 277.344 120.039C259.506 135.069 248.373 157.593 243.929 187.561L243.62 189.644C239.286 218.87 243.538 243.222 256.374 262.726C269.21 282.23 288.715 293.995 314.913 298.025C341.111 302.055 361.554 297.022 379.166 283.353C396.798 269.711 408.241 249.291 413.533 222.146L415.175 212.361C417.958 193.595 416.997 176.384 412.272 160.698ZM341.78 245.163C336.712 250.162 330.1 252.033 321.944 250.779C305.842 248.302 299.23 235.827 302.156 213.362L302.763 209.269C306.256 185.716 316.298 175.215 332.915 177.771C348.012 180.094 354.71 191.504 353.008 212.004L352.048 219.445C350.255 231.533 346.831 240.114 341.749 245.208L341.78 245.163Z" fill="#243E53" fill-opacity="0.7"/>
<path d="M182.777 125.395C178.048 109.734 169.827 96.9872 158.061 87.196C146.456 77.2828 131.897 71.0038 114.44 68.3184C88.0083 64.2524 65.8034 69.7237 47.8486 84.7358C30.0107 99.7659 18.8778 122.291 14.4335 152.259L14.1246 154.341C9.79034 183.567 14.0428 207.92 26.8788 227.423C39.7147 246.927 59.22 258.692 85.418 262.722C111.616 266.752 132.059 261.72 149.671 248.05C167.303 234.409 178.745 213.988 184.038 186.844L185.68 177.059C188.463 158.293 187.502 141.081 182.777 125.395ZM112.285 209.861C107.217 214.859 100.605 216.731 92.4486 215.476C76.3466 212.999 69.7348 200.524 72.6601 178.059L73.2671 173.966C76.7601 150.413 86.8031 139.913 103.419 142.469C118.516 144.791 125.214 156.202 123.513 176.701L122.553 184.143C120.76 196.23 117.336 204.811 112.254 209.905L112.285 209.861Z" fill="#243E53" fill-opacity="0.7"/>
<path d="M188.711 241.889C184.083 245.045 181.33 249.591 180.453 255.504C179.576 261.416 180.86 266.779 184.366 271.187C187.988 275.612 192.943 278.308 199.206 279.272C205.469 280.235 211.112 279.096 215.757 275.82C220.501 272.681 223.298 268.166 224.178 262.23C225.059 256.294 223.678 251.258 220.073 246.713C216.568 242.306 211.637 239.613 205.233 238.628C198.83 237.643 193.455 238.75 188.711 241.889Z" fill="#243E53" fill-opacity="0.7"/>
<path d="M418.987 115.093C411.35 85.5189 388.178 62.0505 360.934 50.2457C344.128 43.0088 323.71 45.1317 308.251 54.9212L308.481 56.9152C314.055 59.1436 319.499 60.4707 325.052 62.0348C332.674 63.9907 340.12 66.1644 347.738 67.8259C355.138 69.5029 362.817 70.2679 369.88 73.411C389.575 81.8022 406.103 96.8795 417.139 115.788L418.987 115.093Z" fill="#243E53" fill-opacity="0.7"/>
<path d="M38.5654 57.553C54.5923 42.8074 74.7554 33.3742 96.0051 31.2814C108.826 30.4138 121.296 33.5315 134.11 33.5196C142.575 33.818 150.806 34.57 159.426 33.9864L160.224 32.1506C150.314 20.3192 135.502 13.1689 120.455 11.6376C99.4401 11.3428 77.9875 18.3497 60.8977 30.7529C51.4056 37.8615 43.0788 46.3 36.9781 56.3295L38.542 57.5494L38.5654 57.553Z" fill="#243E53" fill-opacity="0.7"/>
</svg>
