<svg width="48" height="48" viewBox="0 0 48 48" fill="none" xmlns="http://www.w3.org/2000/svg">
<g clip-path="url(#clip0_26_108)">
<path d="M13.52 9.6801L9.92 6.1001L7.1 8.9201L10.68 12.5001L13.52 9.6801ZM8 21.0001H2V25.0001H8V21.0001ZM26 1.1001H22V7.0001H26V1.1001ZM40.9 8.9201L38.08 6.1001L34.5 9.6801L37.32 12.5001L40.9 8.9201ZM34.48 36.3201L38.06 39.9201L40.88 37.1001L37.28 33.5201L34.48 36.3201ZM40 21.0001V25.0001H46V21.0001H40ZM24 11.0001C17.38 11.0001 12 16.3801 12 23.0001C12 29.6201 17.38 35.0001 24 35.0001C30.62 35.0001 36 29.6201 36 23.0001C36 16.3801 30.62 11.0001 24 11.0001ZM22 44.9001H26V39.0001H22V44.9001ZM7.1 37.0801L9.92 39.9001L13.5 36.3001L10.68 33.4801L7.1 37.0801Z" fill="#FBE122"/>
</g>
<defs>
<clipPath id="clip0_26_108">
<rect width="48" height="48" fill="white"/>
</clipPath>
</defs>
</svg>
